<svg xmlns="http://www.w3.org/2000/svg" width="249" height="58" viewBox="0 0 249 58" fill="none"><mask id="mask0_3324_54359" style="mask-type:luminance" maskUnits="userSpaceOnUse" x="0" y="0" width="249" height="58"><path d="M248.874 0H0V58H248.874V0Z" fill="white"></path></mask><g mask="url(#mask0_3324_54359)"><path d="M36.552 0.105469C36.3604 0.205177 36.2087 0.368321 36.1225 0.56742C36.0364 0.766521 36.0211 0.989412 36.0791 1.19855C37.4027 5.89961 37.5069 10.8636 36.3821 15.6168C35.5767 19.0596 33.929 22.1529 32.2739 25.2834C31.1832 27.2649 30.1968 29.3027 29.3185 31.3883C25.9492 39.4637 30.4415 49.8219 38.4879 53.8968C38.0875 54.2746 37.559 54.4847 37.0101 54.4842H18.2502C8.18671 54.4842 0 45.7619 0 35.0468C0 24.8075 7.47739 16.3603 16.9276 15.6688C18.1717 11.5414 20.5576 7.85583 23.8065 5.04291C27.3676 1.9765 31.867 0.233522 36.552 0.105469Z" fill="#009BA8"></path><path d="M55.0171 6.89366C50.5662 3.53576 45.4474 1.1845 40.0106 0.000579743C39.8556 -0.0247481 39.6966 -0.0108197 39.5483 0.0411086C39.4 0.0930371 39.2668 0.181329 39.1609 0.298015C39.0502 0.416156 38.9716 0.561026 38.9328 0.718633C38.894 0.876239 38.8961 1.04126 38.9392 1.19776C40.2625 5.90024 40.3541 10.8673 39.2052 15.616C37.8678 21.2598 34.2548 25.9742 32.0529 31.3652C28.2847 40.3998 34.3656 52.2378 44.333 55.0262C44.333 55.3162 44.333 54.186 45.0719 57.257C45.0984 57.3787 45.1486 57.494 45.2196 57.5961C45.2906 57.6982 45.3811 57.7851 45.4856 57.8519C45.5939 57.9221 45.7152 57.9695 45.8422 57.9912C45.9691 58.0129 46.0993 58.0085 46.2245 57.9783C46.4683 57.9262 46.5422 57.7998 46.6752 57.5916C46.747 57.4836 46.7959 57.3618 46.8188 57.2338C46.8417 57.1058 46.8381 56.9745 46.8082 56.848C45.9289 52.4534 45.9289 55.6731 46.3132 54.937C46.576 52.7633 47.0033 50.6131 47.5914 48.5049C49.3111 42.1499 50.154 35.5869 50.0962 29.0006L43.8897 24.3308C43.7377 24.1658 43.6489 23.952 43.6387 23.7273C43.6285 23.5026 43.6978 23.2816 43.8341 23.1033C43.9705 22.9251 44.1651 22.8013 44.3836 22.7537C44.6021 22.7062 44.8302 22.7381 45.0275 22.8437L49.9927 26.5616C49.7265 21.3298 48.4727 16.1968 46.2984 11.437C46.1956 11.2112 46.1861 10.9535 46.272 10.7206C46.3579 10.4878 46.5322 10.2988 46.7565 10.1952C46.9803 10.0896 47.2363 10.0764 47.4697 10.1584C47.7031 10.2403 47.8953 10.4111 48.0052 10.6339C51.8178 18.6944 52.9187 28.3611 51.3153 39.4555L57.8987 35.098C58.1063 34.9642 58.3577 34.9173 58.5993 34.9673C58.8408 35.0173 59.0534 35.1603 59.1917 35.3657C59.3307 35.5709 59.3831 35.8232 59.3373 36.0671C59.2916 36.3111 59.1515 36.5269 58.9479 36.667L51.1971 41.7978C51.116 41.8575 51.0225 41.8981 50.9237 41.9167C50.244 46.0288 48.7662 50.6762 48.1086 54.8031C47.5914 56.2308 49.143 55.4872 50.3252 55.5467C76.1045 52.3493 70.5334 17.4749 55.0171 6.89366Z" fill="#F05442"></path><path d="M94.5776 9.97255H88.8292V10.8649C87.4312 9.94236 85.7865 9.47033 84.1152 9.51153C79.4677 9.51153 75.5664 13.4377 75.5664 18.6131C75.5664 23.7885 79.4677 27.7518 84.1152 27.7518C85.7902 27.781 87.4349 27.296 88.8292 26.3613V27.2908H94.5776V9.97255ZM88.8292 21.29C88.391 21.7979 87.8443 22.1994 87.2302 22.4646C86.6162 22.7299 85.9505 22.852 85.2826 22.8218C84.2031 22.7761 83.1827 22.3124 82.4342 21.5273C81.6865 20.7424 81.269 19.6969 81.269 18.6093C81.269 17.5218 81.6865 16.4764 82.4342 15.6914C83.1827 14.9063 84.2031 14.4426 85.2826 14.3969C85.9505 14.3667 86.6162 14.4887 87.2302 14.7541C87.8443 15.0193 88.391 15.4208 88.8292 15.9287V21.29ZM117.061 9.97255H111.313V10.8277C110.197 10.0934 108.926 9.63147 107.6 9.47851C106.275 9.32555 104.934 9.48595 103.681 9.94675C102.428 10.4076 101.3 11.1563 100.386 12.1332C99.4711 13.1101 98.7958 14.2883 98.4131 15.574C98.0303 16.8598 97.9513 18.2176 98.1826 19.5396C98.4131 20.8615 98.9465 22.111 99.7416 23.1887C100.537 24.2665 101.57 25.1427 102.761 25.7477C103.951 26.3526 105.265 26.6697 106.599 26.6736C108.256 26.713 109.89 26.2799 111.313 25.4243V27.5138C111.354 27.9864 111.292 28.4621 111.133 28.9086C110.973 29.355 110.72 29.7616 110.391 30.1005C110.061 30.4394 109.662 30.7026 109.222 30.8722C108.782 31.0418 108.311 31.1137 107.84 31.0831C105.712 31.0831 104.508 30.0867 104.22 28.4805H98.5453C98.8261 32.942 102.624 35.9759 107.84 35.9759C113.234 35.9759 117.061 32.8379 117.061 27.4097V9.97255ZM111.313 20.4274C110.884 20.9531 110.341 21.374 109.727 21.6587C109.113 21.9432 108.443 22.0841 107.766 22.0708C106.742 22.1001 105.745 21.7297 104.985 21.0369C104.224 20.344 103.76 19.3823 103.688 18.3528C103.662 17.8087 103.751 17.2651 103.946 16.7574C104.143 16.2497 104.443 15.7892 104.828 15.4057C105.212 15.0223 105.673 14.7244 106.179 14.5314C106.685 14.3383 107.226 14.2545 107.766 14.2854C108.44 14.2642 109.11 14.3979 109.724 14.6761C110.338 14.9545 110.882 15.3701 111.313 15.8915V20.4274ZM132.999 15.1851V9.66768C130.831 9.60656 128.72 10.3714 127.088 11.8092V9.95024H121.31V27.2833H127.088V17.3564C128.448 16.0402 130.221 15.2892 132.999 15.1851ZM142.471 9.97999H136.723V27.2833H142.471V9.97999ZM168.701 20.1895C168.551 20.9679 168.129 21.6663 167.511 22.1576C166.893 22.649 166.119 22.9005 165.332 22.8664C162.849 22.8664 161.394 20.9777 161.394 18.6205C161.394 16.2633 162.872 14.4118 165.332 14.4118C166.119 14.3777 166.893 14.6292 167.511 15.1206C168.129 15.6119 168.551 16.3103 168.701 17.0887H174.125C173.696 12.6272 170.046 9.51896 165.258 9.51896C159.931 9.50409 155.904 13.3856 155.904 18.5908C155.904 23.7959 159.909 27.7295 165.302 27.7295C170.053 27.7295 173.711 24.6213 174.169 20.1597L168.701 20.1895ZM183.287 1.94922H177.509V27.2833H183.287V1.94922ZM205.541 18.6502C205.541 13.3336 201.64 9.51153 196.106 9.51153C190.572 9.51153 186.634 13.3336 186.634 18.6502C186.634 23.9669 190.631 27.7443 196.136 27.7443C201.64 27.7443 205.564 23.9967 205.564 18.6428L205.541 18.6502ZM200.148 18.6502C200.148 21.1859 198.478 22.9333 196.106 22.9333C193.734 22.9333 192.027 21.1859 192.027 18.6502C192.027 17.5656 192.455 16.5254 193.218 15.7583C193.98 14.9914 195.013 14.5605 196.091 14.5605C197.169 14.5605 198.203 14.9914 198.965 15.7583C199.727 16.5254 200.155 17.5656 200.155 18.6502H200.148ZM226.422 9.97999H220.703V20.8215C220.325 21.3119 219.848 21.7173 219.305 22.0118C218.761 22.3063 218.164 22.4834 217.548 22.5318C215.671 22.5318 214.393 21.3569 214.393 18.8882V9.96512H208.645V19.7805C208.645 24.7031 211.6 27.7369 215.989 27.7369C217.706 27.7421 219.372 27.1482 220.703 26.0564V27.2684H226.452L226.422 9.97999ZM248.854 1.94922H243.106V10.9318C241.708 10.0093 240.063 9.53725 238.392 9.57845C233.744 9.57845 229.843 13.5046 229.843 18.6428C229.843 23.781 233.744 27.7443 238.392 27.7443C240.058 27.778 241.697 27.3177 243.106 26.4208V27.2759H248.854V1.94922ZM243.106 21.3643C242.668 21.8722 242.121 22.2738 241.507 22.539C240.893 22.8043 240.227 22.9264 239.559 22.8961C238.48 22.8505 237.459 22.3867 236.711 21.6017C235.963 20.8168 235.546 19.7713 235.546 18.6837C235.546 17.5961 235.963 16.5507 236.711 15.7657C237.459 14.9807 238.48 14.5169 239.559 14.4713C240.227 14.4411 240.893 14.5631 241.507 14.8284C242.121 15.0937 242.668 15.4952 243.106 16.0031V21.3643Z" fill="#009BA8"></path><path d="M82.6279 49.0111C82.639 48.5336 82.554 48.0588 82.3796 47.6148C82.2045 47.1708 81.943 46.7666 81.6105 46.4262C81.278 46.0857 80.8805 45.8159 80.4423 45.6328C80.0042 45.4497 79.5335 45.3569 79.0592 45.36C78.1725 45.337 77.311 45.6563 76.6504 46.2523V41.9023H75.5273V52.4613H76.6504V51.7177C77.311 52.3138 78.1725 52.6331 79.0592 52.61C79.5291 52.612 79.9946 52.5202 80.429 52.34C80.8635 52.1597 81.258 51.8946 81.5898 51.5599C81.9215 51.2252 82.1838 50.8276 82.3627 50.3901C82.5407 49.9526 82.6309 49.4839 82.6279 49.0111ZM81.5048 49.0111C81.5085 49.3507 81.4457 49.6878 81.3186 50.0026C81.1915 50.3173 81.0039 50.6035 80.7659 50.8444C80.528 51.0852 80.2443 51.276 79.9325 51.4056C79.6207 51.5351 79.286 51.6008 78.9483 51.5988C78.5028 51.6157 78.0602 51.5164 77.6642 51.3105C77.2681 51.1047 76.9319 50.7992 76.6874 50.4239V47.5908C76.9319 47.2154 77.2681 46.91 77.6642 46.7041C78.0602 46.4983 78.5028 46.399 78.9483 46.4159C79.2867 46.4139 79.6214 46.4798 79.934 46.6098C80.2465 46.7398 80.5303 46.9312 80.7682 47.1729C81.0061 47.4146 81.1945 47.7017 81.3208 48.0173C81.4472 48.3329 81.51 48.6708 81.5048 49.0111ZM91.4648 45.5608H90.2678L87.6079 51.5095L84.7411 45.5608H83.5293L87.0611 52.6993L85.6277 55.8967H86.8247L91.4648 45.5608ZM103.686 45.36H101.75V45.7467C101.143 45.3651 100.441 45.1688 99.7254 45.1816C99.2584 45.1681 98.7944 45.251 98.3607 45.425C97.927 45.5991 97.5332 45.8607 97.2036 46.1937C96.8741 46.5267 96.6155 46.924 96.4448 47.3612C96.2734 47.7984 96.1929 48.2663 96.2084 48.7359C96.2335 49.6558 96.6155 50.5291 97.2731 51.1685C97.9307 51.8079 98.8114 52.1626 99.7254 52.1564C100.441 52.1692 101.143 51.9729 101.75 51.5913V52.4985C101.774 52.7298 101.747 52.9635 101.673 53.1837C101.599 53.404 101.479 53.6056 101.32 53.7748C101.162 53.9441 100.969 54.0771 100.755 54.1648C100.541 54.2525 100.311 54.2929 100.08 54.2831C99.6848 54.3387 99.2836 54.2358 98.9629 53.9965C98.6422 53.7573 98.428 53.4009 98.3659 53.0041H96.4005C96.5483 54.7888 98.0556 56.0529 100.095 56.0529C100.571 56.0884 101.049 56.0214 101.498 55.8564C101.946 55.6914 102.355 55.4321 102.696 55.0958C103.037 54.7595 103.303 54.354 103.477 53.9061C103.65 53.4582 103.726 52.9784 103.701 52.4985L103.686 45.36ZM101.75 49.5836C101.562 49.8683 101.303 50.0998 101.001 50.2559C100.698 50.4121 100.361 50.4878 100.021 50.4759C99.5459 50.4846 99.0855 50.3086 98.7361 49.9845C98.3866 49.6604 98.1745 49.2132 98.1442 48.7359C98.1295 48.4839 98.1671 48.2316 98.2565 47.9955C98.3452 47.7595 98.4834 47.5452 98.6607 47.3667C98.838 47.1882 99.0508 47.0495 99.285 46.96C99.52 46.8705 99.7705 46.832 100.021 46.8472C100.361 46.8353 100.698 46.911 101.001 47.0672C101.303 47.2234 101.562 47.4548 101.75 47.7395V49.5836ZM110.136 45.2411C109.679 45.2228 109.223 45.2962 108.794 45.4571C108.365 45.6179 107.973 45.863 107.639 46.178V45.36H105.703V52.4539H107.639V48.1634C107.958 47.8196 108.345 47.5468 108.775 47.3624C109.205 47.178 109.668 47.0861 110.136 47.0926V45.2411ZM118.515 48.9144C118.525 48.1663 118.314 47.4321 117.908 46.8051C117.503 46.1782 116.921 45.6869 116.237 45.3937C115.553 45.1006 114.798 45.019 114.068 45.159C113.337 45.2992 112.665 45.6549 112.136 46.1807C111.607 46.7066 111.246 47.3789 111.098 48.1121C110.95 48.8452 111.022 49.6062 111.305 50.2979C111.589 50.9898 112.07 51.5811 112.687 51.9968C113.306 52.4125 114.033 52.6338 114.776 52.6323C115.269 52.6574 115.763 52.579 116.224 52.4021C116.685 52.2252 117.105 51.9537 117.457 51.6047C117.808 51.2558 118.083 50.8371 118.266 50.3753C118.448 49.9134 118.533 49.4184 118.515 48.9218V48.9144ZM116.579 48.9144C116.553 49.27 116.425 49.6101 116.209 49.8931C115.994 50.1761 115.701 50.3895 115.367 50.5072C115.032 50.6249 114.671 50.6417 114.327 50.5555C113.983 50.4693 113.672 50.2839 113.431 50.0221C113.191 49.7603 113.032 49.4335 112.973 49.0819C112.915 48.7302 112.96 48.369 113.103 48.0428C113.246 47.7166 113.48 47.4395 113.777 47.2456C114.075 47.0516 114.422 46.9494 114.776 46.9513C115.027 46.9481 115.276 46.9981 115.507 47.0981C115.738 47.1981 115.944 47.3459 116.114 47.5318C116.284 47.7177 116.414 47.9375 116.494 48.177C116.574 48.4165 116.603 48.6703 116.579 48.9218V48.9144ZM130.344 45.36H128.246L127.019 49.5093L125.497 45.36H123.872L122.35 49.5093L121.123 45.36H119.025L121.507 52.4539H123.192L124.67 48.0518L126.147 52.4539H127.832L130.344 45.36ZM133.255 45.5534H132.132V52.4539H133.255V45.5534ZM142.514 48.5277C142.514 46.5795 141.317 45.4047 139.558 45.4047C138.648 45.387 137.768 45.7286 137.105 46.3564V45.6129H135.982V52.5134H137.105V47.5908C137.361 47.2369 137.694 46.9461 138.077 46.7401C138.462 46.534 138.887 46.4181 139.322 46.4011C139.602 46.3816 139.882 46.4245 140.144 46.5267C140.405 46.629 140.641 46.788 140.834 46.9926C141.028 47.1971 141.174 47.4421 141.263 47.7101C141.351 47.978 141.379 48.2623 141.346 48.5426V52.439H142.469L142.514 48.5277ZM151.513 41.9247H150.39V46.297C149.729 45.7009 148.868 45.3816 147.981 45.4047C147.025 45.4047 146.107 45.7869 145.431 46.4675C144.755 47.148 144.375 48.0709 144.375 49.0334C144.375 49.9958 144.755 50.9187 145.431 51.5993C146.107 52.2798 147.025 52.6621 147.981 52.6621C148.868 52.6851 149.729 52.3658 150.39 51.7698V52.5134H151.513V41.9247ZM150.39 50.4462C150.145 50.8216 149.809 51.127 149.413 51.3328C149.017 51.5387 148.574 51.638 148.129 51.6211C147.443 51.6211 146.785 51.3469 146.3 50.8588C145.816 50.3707 145.543 49.7088 145.543 49.0185C145.543 48.3282 145.816 47.6663 146.3 47.1782C146.785 46.6902 147.443 46.4159 148.129 46.4159C148.574 46.399 149.017 46.4983 149.413 46.7041C149.809 46.91 150.145 47.2154 150.39 47.5908V50.4462ZM155.414 45.5831H154.291V52.4836H155.414V45.5831ZM164.864 45.5831H163.741V46.3267C163.051 45.7321 162.167 45.4145 161.259 45.4344C160.334 45.4344 159.447 45.8042 158.792 46.4624C158.138 47.1206 157.771 48.0133 157.771 48.9441C157.771 49.875 158.138 50.7677 158.792 51.4259C159.447 52.0841 160.334 52.4539 161.259 52.4539C162.167 52.4738 163.051 52.1561 163.741 51.5616V52.7959C163.76 53.1001 163.713 53.4047 163.602 53.6888C163.493 53.9729 163.324 54.2297 163.106 54.4416C162.889 54.6536 162.628 54.8157 162.342 54.9166C162.057 55.0176 161.752 55.0552 161.451 55.0267C160.165 55.0267 159.308 54.3872 159.116 53.4503H157.971C158.207 54.9821 159.567 56.0529 161.458 56.0529C163.497 56.0529 164.872 54.8185 164.872 52.7959L164.864 45.5831ZM163.741 50.2082C163.486 50.5927 163.138 50.906 162.729 51.1192C162.321 51.3323 161.866 51.4384 161.406 51.4277C161.081 51.4317 160.757 51.3702 160.456 51.247C160.153 51.1238 159.878 50.9413 159.647 50.71C159.417 50.4788 159.233 50.2036 159.109 49.9004C158.985 49.5972 158.922 49.2721 158.924 48.9441C158.91 48.6101 158.964 48.2767 159.083 47.9646C159.202 47.6525 159.383 47.3685 159.616 47.13C159.849 46.8915 160.128 46.7037 160.436 46.5783C160.744 46.453 161.075 46.3926 161.406 46.4011C161.865 46.3858 162.319 46.4868 162.728 46.6947C163.138 46.9026 163.489 47.2108 163.749 47.5908L163.741 50.2082ZM174.182 49.0334C174.189 48.3064 173.981 47.5938 173.585 46.9859C173.189 46.378 172.623 45.9023 171.957 45.6194C171.292 45.3365 170.557 45.259 169.848 45.3968C169.14 45.5346 168.487 45.8815 167.974 46.3935C167.461 46.9054 167.111 47.5592 166.968 48.2718C166.825 48.9844 166.896 49.7236 167.173 50.3955C167.448 51.0674 167.916 51.6417 168.517 52.0452C169.117 52.4488 169.824 52.6635 170.546 52.6621C171.028 52.6786 171.508 52.5955 171.956 52.418C172.405 52.2406 172.812 51.9726 173.153 51.6304C173.494 51.2882 173.763 50.8793 173.941 50.4287C174.119 49.9782 174.203 49.4957 174.189 49.0111L174.182 49.0334ZM173.044 49.0334C173.032 49.5314 172.875 50.0148 172.591 50.4229C172.307 50.8311 171.91 51.1458 171.449 51.3276C170.988 51.5094 170.484 51.5502 170.001 51.4448C169.517 51.3395 169.075 51.0926 168.73 50.7353C168.385 50.378 168.153 49.9261 168.062 49.4365C167.972 48.9467 168.027 48.441 168.221 47.9828C168.415 47.5246 168.739 47.1342 169.153 46.8607C169.567 46.5873 170.051 46.4429 170.546 46.4457C170.88 46.4405 171.212 46.5036 171.522 46.6312C171.83 46.7589 172.111 46.9484 172.345 47.1883C172.579 47.4282 172.762 47.7134 172.884 48.0268C173.005 48.34 173.062 48.675 173.051 49.0111L173.044 49.0334ZM182.457 45.6129C182.472 44.9095 182.277 44.2177 181.9 43.6258C181.522 43.0339 180.978 42.5687 180.336 42.2895C179.694 42.0104 178.985 41.9301 178.297 42.0587C177.61 42.1874 176.977 42.5192 176.478 43.0119C175.979 43.5046 175.637 44.1357 175.496 44.8247C175.355 45.5137 175.421 46.2294 175.686 46.8805C175.951 47.5314 176.403 48.0881 176.984 48.4795C177.565 48.871 178.248 49.0793 178.947 49.078C179.407 49.0869 179.864 49.0032 180.291 48.8318C180.719 48.6603 181.108 48.4046 181.436 48.0796C181.763 47.7547 182.023 47.3671 182.2 46.9396C182.376 46.5122 182.467 46.0535 182.464 45.5906L182.457 45.6129ZM181.777 45.6129C181.783 46.1788 181.621 46.7338 181.313 47.2073C181.005 47.6807 180.564 48.0513 180.046 48.272C179.528 48.4927 178.957 48.5535 178.405 48.4467C177.852 48.3399 177.344 48.0703 176.944 47.6722C176.545 47.2741 176.271 46.7653 176.16 46.2107C176.047 45.656 176.102 45.0804 176.316 44.5569C176.53 44.0334 176.893 43.5857 177.36 43.2705C177.828 42.9555 178.378 42.7872 178.94 42.7872C179.682 42.7891 180.393 43.0838 180.921 43.6081C181.448 44.1324 181.751 44.8443 181.762 45.5906L181.777 45.6129ZM179.516 46.0441C179.756 45.9972 179.971 45.8673 180.124 45.6771C180.279 45.4869 180.362 45.2484 180.359 45.0031C180.356 44.8471 180.322 44.6933 180.257 44.5512C180.194 44.4091 180.101 44.2818 179.986 44.1772C179.871 44.0726 179.736 43.9929 179.589 43.9431C179.442 43.8933 179.286 43.8744 179.132 43.8877H177.758V47.2041H178.26V46.1036H178.91L179.812 47.219H180.462L179.516 46.0441ZM178.26 45.6129V44.3413H179.117C179.207 44.3276 179.3 44.3333 179.388 44.3582C179.476 44.3831 179.557 44.4265 179.627 44.4856C179.697 44.5447 179.753 44.6181 179.793 44.7009C179.832 44.7838 179.854 44.8741 179.856 44.9659C179.855 45.0582 179.835 45.1492 179.796 45.2326C179.756 45.316 179.699 45.3899 179.629 45.4493C179.559 45.5086 179.477 45.552 179.388 45.5763C179.3 45.6007 179.207 45.6056 179.117 45.5906L178.26 45.6129Z" fill="#009BA8"></path></g></svg>